<svg xmlns="http://www.w3.org/2000/svg" width="1921" height="1080" viewBox="0 0 1921 1080" fill="none">
    <g clip-path="url(#clip0_105_192)">
        <rect x="1920" y="1079.1" width="1920" height="1080" transform="rotate(-179.997 1920 1079.1)" fill="#4c9141"/>
        <path d="M24.7749 530.9C64.2603 530.474 103.996 525.585 142.064 514.921C172.497 506.398 203.103 493.141 225.38 470.052C271.149 422.602 257.842 346.755 216.195 301.218C168.927 249.55 96.3466 230.399 50.0238 177.448C30.0582 154.622 16.5512 126.657 17.4558 95.8474C18.2449 69.1157 29.3585 41.7376 52.2335 26.5728C79.0221 8.8146 112.705 14.3462 139.611 28.6507C169.409 44.4974 190.599 69.9747 212.068 95.2594C233.123 120.081 255.952 145.674 287.446 156.942C322.238 169.386 360.306 164.515 395.704 157.525C414.203 153.87 433.135 148.191 452.165 149.733C467.897 150.995 482.078 157.578 494.206 167.497C519.849 188.453 532.373 219.754 547.201 248.345C554.913 263.2 563.542 277.833 575.554 289.661C587.527 301.46 602.499 309.287 618.26 314.781C649.417 325.643 682.839 328.871 713.071 342.587C742.753 356.062 769.245 380.373 775.513 413.563C778.483 429.296 776.826 445.877 769.143 460.077C761.663 473.891 749.267 484.255 735.81 491.987C668.216 530.859 586.546 524.202 513.089 535.32C482.116 540.007 450.257 552.213 430.139 577.355C420.346 589.598 414.649 604.733 414.245 620.417C413.802 637.133 419.163 653.338 427.097 667.874C443.93 698.712 470.75 721.991 497.338 744.21C523.184 765.822 549.782 786.633 574.037 810.076C577.238 813.18 580.4 816.342 583.504 819.552C584.16 820.092 584.815 820.622 585.461 821.171C598.968 832.536 612.31 844.441 622.982 858.592C632.7 871.471 640.152 886.557 641.04 902.897C641.773 916.402 638.014 930.573 629.763 941.37C620.866 953.006 606.802 959.475 592.129 958.397C546.233 955.025 508.143 900.532 471.49 876.675C441.432 857.107 405.734 840.297 369.324 839.392C330.224 838.43 292.879 853.509 256.026 864.452C225.863 873.409 194.591 879.513 163.059 875.205C134.466 871.293 107.493 858.435 91.3927 833.699C74.6179 807.913 72.5629 776.024 65.9581 746.786C56.4895 704.862 31.81 682.412 -3.94543 668.889L-3.95231 530.362C5.61059 530.805 15.1928 530.997 24.7749 530.9ZM10.0771 594.139C3.61929 614.866 28.0188 627.609 44.0889 632.023C55.9751 635.281 68.459 636.745 80.7789 636.282C93.4748 635.819 105.631 632.675 118.095 630.525C128.921 628.654 140.778 628.027 150.862 633.203C160.704 638.245 164.888 647.836 164.879 658.556C164.861 669.488 161.911 680.14 160.35 690.889C158.538 703.392 158.742 716.04 160.93 728.475C162.56 737.749 165.491 747.899 173.049 754.136C180.781 760.517 190.941 760.343 199.569 755.918C208.939 751.117 215.195 742.653 220.265 733.716C225.094 725.194 229.528 715.217 238.001 709.644C256.799 697.285 281.208 711.821 297.076 722.569C314.322 734.232 329.872 748.151 345.432 761.917C361.107 775.788 376.879 789.698 394.318 801.332C410.312 812.003 430.036 823.271 449.615 824.735C459.014 825.439 468.682 822.373 474.167 814.313C478.939 807.295 479.266 798.07 477.241 790.059C473.057 773.517 459.473 764.331 446.999 754.171C427.535 735.779 410.297 715.362 395.759 692.863C382.628 672.533 371.753 650.689 363.684 627.862C353.618 599.395 343.87 569.358 363.265 542.22C383.006 514.591 415.57 507.494 446.793 500.995C480.051 494.072 513.752 489.289 547.617 486.694C572.874 484.755 599.413 476.271 613.091 453.115C618.479 443.995 621.1 432.764 617.321 422.546C614.024 413.629 606.678 406.843 598.445 402.409C588.207 396.876 576.677 395.113 565.437 392.723C554.332 390.361 543.911 386.795 534.81 379.835C518.026 366.986 510.063 347.919 509.059 327.212C508.104 307.44 511.409 287.013 506.376 267.589C501.739 249.736 485.128 228.644 464.277 235.374C455.35 238.247 449.171 245.632 443.474 252.669C436.987 260.651 430.481 267.728 420.87 271.96C398.717 281.726 373.923 275.462 352.531 266.825C330.099 257.784 308.447 246.4 287.788 233.85C267.225 221.367 247.558 207.39 229.078 191.986C212.641 178.289 197.476 161.015 177.454 152.484C168.941 148.85 158.588 146.287 149.488 149.285C139.366 152.611 135.588 162.165 137.516 172.142C141.354 192 158.138 207.732 173.89 218.894C214.582 247.726 261.395 266.386 304.082 291.853C334.314 309.888 363.544 337.814 357.376 375.998C351.912 409.835 329.713 439.797 309.508 466.443C295.888 484.403 280.407 501.11 262.95 515.397C245.714 529.492 226.242 541.051 205.217 548.494C182.39 556.583 158.3 560.363 134.297 562.88C109.753 565.446 85.0942 566.874 60.6473 570.326C43.9992 572.67 16.1589 574.609 10.0771 594.139Z" fill="#0E121F"/>
        <path d="M58.9785 936.588C109.175 950.757 159.793 913.688 210.018 931.086C228.305 937.428 243.595 952.591 249.043 971.331C254.104 988.75 247.868 1006.44 233.303 1017.09C219.614 1027.11 202.012 1029.94 185.981 1034.23C171.126 1038.19 155.818 1043.06 147.942 1057.42C142.4 1067.53 141.186 1079.6 142.816 1091.02C145.641 1110.77 156.179 1129.1 162.764 1147.78C173.34 1177.78 182.182 1210.16 171.695 1241.42C163.194 1266.78 142.421 1288.63 113.925 1287.06C85.7758 1285.52 65.068 1263.86 55.0412 1238.97C48.3984 1222.47 45.9393 1204.81 44.1358 1187.23C42.1586 1168.11 40.5092 1148.96 38.908 1129.8C38.8887 1129.57 38.8984 1129.37 38.908 1129.16C33.4886 1093.92 22.4585 1055.32 -3.93707 1030.63L-3.93984 975.026C8.93969 984.878 20.1227 997.101 29.1464 1010.36C48.717 1039.11 60.2578 1072.23 71.1044 1105.04C73.8718 1120.35 80.3121 1136.46 89.8467 1148.54C100.095 1161.54 118.083 1156.41 124.329 1142.4C127.876 1134.47 127.528 1125.82 127.239 1117.33C126.93 1107.98 126.457 1098.63 125.02 1089.39C123.14 1077.32 118.522 1066 114.164 1054.67C110.886 1046.14 103.038 1032.28 108.581 1023.45C112.87 1016.62 121.758 1016.69 128.747 1014.99C147.969 1010.28 172.116 990.817 158.764 968.791C154.859 962.351 148.121 959.257 140.958 957.889C131.868 956.154 122.546 955.374 113.33 954.748C76.9579 952.272 38.292 954.713 4.77287 937.864C1.79404 936.36 -1.10768 934.741 -3.94193 933.015L-3.94591 852.994C4.23061 889.076 21.247 925.948 58.9689 936.588L58.9785 936.588Z" fill="#0E121F"/>
        <path d="M5.05459 1368.95C40.1234 1339.09 88.3912 1344.1 131 1339.4C154.444 1336.82 178.659 1330.56 195.442 1312.93C212.706 1294.77 219.212 1268.73 220.059 1244.32C220.588 1229.28 218.978 1214.25 215.295 1199.66C211.852 1186.09 206.126 1173.42 201.141 1160.38C192.821 1138.65 187.932 1111.24 204.811 1092.06C218.412 1076.62 240.69 1075.49 259.517 1071.97C268.549 1070.28 278.093 1068.12 285.583 1062.47C304.37 1048.28 297.351 1020.1 299.692 999.892C310.022 910.606 425.567 901.943 478.975 956.812C494.785 973.054 505.323 993.23 509.884 1015.4C514.927 1039.92 514.06 1066.88 526.353 1089.35C537.42 1109.58 558.079 1121.01 578.912 1128.98C600.13 1137.09 622.196 1142.67 643.038 1151.8C685.426 1170.36 725.376 1201.78 743.81 1245.33C760.19 1284.01 758.11 1332.7 732.576 1367.09C717.683 1387.13 696.495 1397.82 674.159 1407.73C652.672 1417.27 627.281 1428.82 617.825 1452.16C612.312 1465.74 614.819 1480.36 618.599 1494.03C619.437 1497.06 620.315 1500.07 621.212 1503.06L534.047 1503.07C539.974 1474.56 538.334 1444.64 545.765 1416.3C550.584 1397.91 560.049 1382.26 573.921 1369.29C587.021 1357.06 602.358 1347.61 617.347 1337.92C632.347 1328.23 648.377 1318.35 659.598 1304.19C670.037 1291.03 675.743 1273.37 669.698 1256.98C663.537 1240.29 647.216 1233.71 630.568 1232.8C585.906 1230.34 521.155 1251.88 486.719 1214.49C465.308 1191.24 458.423 1159.53 451.934 1129.58C448.029 1111.57 443.989 1092.71 432.545 1077.77C422.837 1065.07 406.95 1056.69 390.716 1058.58C361.661 1061.96 360.381 1093.19 357.567 1115.72C354.541 1139.92 341.133 1148.98 319.289 1156.31C303.402 1161.63 289.396 1168.95 282.784 1185.31C275.275 1203.88 279.508 1223.83 282.97 1242.78C289.469 1278.38 284.516 1315.53 264.051 1346C241.351 1379.8 203.158 1392.24 166.7 1405.53C127.369 1419.88 75.9606 1445.08 73.553 1493.49C73.3893 1496.74 73.4955 1499.94 73.8137 1503.09L11.3658 1503.1C6.72842 1491.69 1.12702 1480.51 -3.90562 1469.12L-3.91014 1378.33C-1.29787 1374.97 1.68074 1371.82 5.05459 1368.95L5.05459 1368.95Z" fill="#0E121F"/>
        <path d="M755.859 1417.27C774.001 1407.08 796.713 1406.94 816.465 1411.89C836.517 1416.93 854.448 1428.38 865.891 1445.78C877.296 1463.1 881.433 1482.88 881.443 1503.05L721.651 1503.06C721.649 1470.52 725.629 1434.24 755.859 1417.27Z" fill="#0E121F"/>
        <path d="M959.485 1431.07C955.58 1411.18 950.653 1391.57 945.003 1372.14C937.878 1355.8 929.587 1339.95 920.158 1324.76C893.762 1282.17 858.94 1247.33 819.164 1217.19C779.06 1186.82 736.373 1158.42 707.075 1116.61C681.431 1079.99 674.691 1040.33 680.598 996.326C684.269 968.996 691.671 942.341 689.221 914.559C687.099 890.478 679.155 867.458 668.347 845.961C646.626 802.746 614.658 765.788 590.797 723.846C579.228 703.516 568.247 679.696 573.037 655.74C577.065 635.534 592.884 621.797 611.441 614.759C631.241 607.248 652.304 607.151 673.155 607.294C697.13 607.466 724.826 607.937 744.047 591.375C761.129 576.654 769.794 554.154 776.522 533.254C787.201 500.072 802.102 452.44 842.744 446.49C864.212 443.347 884.11 455.039 896.479 472.014C911.055 492.017 914.334 517.958 915.781 541.981C917.229 566.023 916.285 590.113 915.881 614.175C915.103 660.572 916.021 710.199 943.863 749.615C958.527 770.379 978.772 786.39 994.467 806.296C1008.5 824.1 1018.29 844.691 1023.67 866.708C1034.58 911.351 1028.53 959.3 1014.02 1002.41C1005.65 1027.25 993.92 1052.17 992.812 1078.76C992.292 1091.06 994.462 1103.19 1000.08 1114.2C1005.32 1124.43 1012.69 1133.29 1020.15 1141.96C1035 1159.21 1049.25 1176.94 1054.63 1199.54C1059.79 1221.19 1058.18 1243.84 1057.05 1265.85C1055.75 1291.26 1055.22 1318.57 1066.55 1342.04C1078.23 1366.26 1095.48 1386.86 1104.93 1412.41C1115.45 1440.84 1116.53 1476.42 1101.37 1503.05L978.894 1503.06C978.344 1502.11 977.814 1501.16 977.303 1500.17C966.245 1478.86 964.065 1454.29 959.495 1431.08L959.485 1431.07ZM1000.88 1333.88C1004.42 1326.23 1004 1317.26 1003.24 1309.08C1002.31 1299.08 1000.3 1289.24 997.315 1279.67C986.285 1244.37 964.343 1214.42 946.7 1182.33C946.912 1181.45 946.844 1180.47 946.381 1179.46C941.108 1168.11 936.731 1156.38 933.279 1144.34C926.414 1120.4 923.155 1095.61 923.664 1070.7C924.193 1045.13 929.195 1020.57 936.906 996.255C944.472 972.367 951.633 948.266 948.499 922.923C945.635 899.826 933.391 881.78 916.81 866.135C900.855 851.088 883.001 837.853 872.328 818.207C861.222 797.762 857.731 773.989 857.778 750.979C857.835 724.276 862.673 697.91 865.718 671.468C868.319 648.871 873.552 618.746 856.759 600.161C849.625 592.266 839.348 588.372 828.821 590.513C817.89 592.74 807.72 600.433 800.442 608.637C793.087 616.928 788.075 626.684 785.164 637.356C782.234 648.104 780.885 660.241 772.961 668.744C757.962 684.853 732.648 682.743 712.712 682.754C692.622 682.755 663.095 685.292 654.893 707.657C650.777 718.849 655.81 730.938 660.543 741.098C665.74 752.28 672.623 762.556 680.423 772.089C696.021 791.166 715.003 807.177 729.705 827.045C756.689 863.521 772.356 908.125 775.068 953.355C776.467 976.8 774.115 999.849 769.133 1022.75C766.318 1035.65 763.302 1048.71 763.245 1061.97C763.197 1073.23 765.338 1084.49 769.271 1095.02C783.579 1133.3 814.139 1154.08 845.721 1176.91C867.768 1192.86 884.928 1213.63 899.823 1236.2C909.994 1251.61 919.057 1267.72 927.782 1283.97C936.95 1301.04 945.608 1318.96 959.307 1332.98C965.4 1339.21 972.977 1344.7 981.981 1345.09C990.04 1345.42 997.482 1341.25 1000.88 1333.88Z" fill="#0E121F"/>
        <path d="M173.074 1443.76C192.353 1425.8 215.305 1414.23 239.279 1403.85C263.35 1393.43 288.597 1383.21 307.365 1364.21C326.673 1344.67 338.095 1317.56 341.679 1290.55C344.657 1268.05 341.812 1239.7 361.004 1223.45C375.898 1210.83 398.735 1208.73 416.781 1214.9C433.719 1220.68 444.42 1237.89 452.653 1252.72C460.453 1266.78 472.244 1297.49 491.987 1297C500.827 1296.77 509.126 1291.59 517.407 1289.02C529.64 1285.23 543.194 1279.53 556.217 1282.4C567.197 1284.82 573.975 1294.26 574.457 1305.2C574.949 1316.19 569.812 1326.73 562.949 1334.98C548.374 1352.51 526.954 1362.18 508.475 1374.79C499.279 1381.08 490.439 1388.42 484.318 1397.85C477.021 1409.1 474.063 1422.34 470.988 1435.21C467.981 1447.83 464.752 1460.71 457.822 1471.85C451.662 1481.76 442.977 1489.8 433.115 1495.94C428.681 1498.71 424.083 1501.06 419.35 1503.07L133.62 1503.09C141.794 1480.71 155.472 1460.16 173.074 1443.76Z" fill="#0E121F"/>
        <path d="M1428.25 1463.63C1420.28 1443.02 1401.06 1427.07 1378.16 1429.46C1366.14 1430.72 1354.87 1435.93 1344.04 1441.01C1333.33 1446.02 1322.62 1450.94 1311.33 1454.5C1289.36 1461.46 1264.45 1464.18 1242.39 1456.09C1213.8 1445.59 1194.18 1420.95 1197.8 1389.33C1200.68 1364.22 1216.87 1342.16 1236.82 1326.65C1262.76 1306.49 1291.47 1295.4 1321.4 1287.11C1344.41 1280.75 1368.16 1276.04 1391.94 1270.17C1430.57 1260.64 1476.99 1241.33 1490.82 1200.24C1498.89 1176.27 1492.44 1151.27 1485.04 1128.03C1473.36 1091.3 1456.05 1042.05 1487.32 1009.64C1501.95 994.472 1523.8 989.43 1544.21 989.284C1564.73 989.148 1587.89 993.331 1602.24 1009.31C1609.6 1017.51 1614.09 1027.57 1617.94 1037.77C1622.46 1049.77 1626.21 1062.08 1629.25 1074.54C1635.2 1099.01 1637.39 1123.79 1639.3 1148.84C1641.14 1173.03 1643.38 1198.87 1655.06 1220.64C1664.57 1238.38 1680.62 1254.35 1700.54 1259.5C1745.77 1271.21 1767.9 1218.44 1791.39 1190.88C1804 1176.07 1820.43 1162.62 1840.53 1160.92C1860.18 1159.26 1877.62 1170.45 1888.41 1186.24C1915.91 1226.45 1891.15 1274.74 1866.84 1309.54C1853.05 1329.29 1837.57 1348.74 1828.72 1371.38C1820.6 1392.18 1817.6 1417.18 1828.49 1437.59C1838.89 1457.06 1859.5 1468.68 1873.73 1485.04C1878.58 1490.61 1883.14 1496.64 1887.18 1503L1801.75 1503.01C1798.48 1493.38 1793.13 1484.22 1787.89 1475.81C1778.29 1460.41 1765.93 1443.72 1767.01 1424.62C1768.37 1400.77 1790.08 1384.53 1805.03 1368.45C1819.37 1353.02 1834.79 1330.48 1826.04 1308.5C1822.45 1299.5 1814.59 1291.91 1804.36 1292.46C1792.92 1293.08 1784.64 1302.74 1776.65 1309.77C1766.48 1318.72 1755.74 1326.99 1744.48 1334.51C1733.64 1341.75 1722.2 1348.64 1709.63 1352.4C1686.72 1359.28 1665.01 1352.04 1648.85 1334.94C1633.22 1318.39 1625.01 1297.09 1619.94 1275.26C1613.91 1249.28 1611.37 1222.35 1601.83 1197.27C1594.77 1178.71 1579.59 1156.62 1556.52 1164.77C1532.73 1173.16 1527.4 1199.22 1527.83 1221.53C1528.26 1244.39 1532.05 1272.2 1510.1 1286.86C1491.65 1299.18 1467.28 1299.56 1446.1 1303.04C1419.98 1307.32 1393.24 1312.97 1368.5 1322.56C1352.13 1328.9 1333.1 1339.85 1324.32 1355.61C1322.06 1359.64 1320.47 1364.22 1320.82 1368.84C1321.15 1373.2 1323.17 1377.29 1325.84 1380.74C1337.96 1396.42 1355.69 1394.31 1373.07 1392.02C1387.82 1390.08 1402.54 1387.16 1417.36 1385.45C1430.54 1383.92 1444.27 1383.92 1456.63 1388.75C1479.99 1397.89 1489.01 1425.54 1490 1448.71C1490.79 1466.97 1485.51 1484.91 1484.53 1503.02L1434.08 1503.02C1434.26 1489.62 1433.07 1476.09 1428.25 1463.63Z" fill="#0E121F"/>
        <path d="M1618.19 1454.12C1646.09 1441.28 1677.98 1471.58 1696.78 1488.54C1702.05 1493.29 1707.22 1498.14 1712.37 1503.01L1585.52 1503.02C1589.67 1492.36 1593.8 1481.7 1599.62 1471.95C1604.08 1464.48 1610.26 1457.77 1618.18 1454.12L1618.19 1454.12Z" fill="#0E121F"/>
        <path d="M1856.11 1006.13C1836.17 1007.79 1819.99 1018.24 1808.87 1034.61C1798.44 1049.96 1791.31 1068.07 1777.6 1081C1762.25 1095.5 1741.09 1098.2 1721.77 1090.39C1682.81 1074.66 1668.42 1031.97 1658.28 994.773C1648.13 957.621 1639.01 913.943 1603.2 892.688C1514.35 839.962 1457.57 974.703 1383.3 996.3C1361.61 1002.61 1335.3 1006.04 1314.31 995.648C1284.13 980.717 1277.09 940.365 1271.62 910.568C1259.57 844.968 1265.95 770.084 1293.94 708.984C1321.82 648.126 1379.3 619.511 1444.99 633.11C1491.42 642.719 1530.38 670.471 1565.99 700.497C1584.83 716.383 1603.01 733.059 1622.01 748.762C1640.79 764.272 1661.17 780.302 1685.44 785.796C1706.93 790.663 1731.29 785.832 1744.77 767.188C1751.36 758.068 1755.03 747.175 1757.21 736.223C1759.4 725.185 1759.59 713.704 1763.14 702.955C1770.65 680.147 1794.53 670.997 1816.94 670.427C1839.43 669.867 1860.95 679.005 1876.71 694.929C1911.31 729.892 1913.35 781.524 1919.52 827.304C1920.63 835.536 1922.09 844.193 1924.06 852.898L1924.07 932.919C1900.65 918.624 1882.44 896.791 1870.46 872.171C1863.59 858.068 1859.49 843.319 1856.1 828.068C1852.85 813.502 1849.01 797.876 1838.11 786.964C1826.98 775.821 1811.12 773.074 1796.01 775.109C1779.1 777.385 1764.3 785.927 1749.86 794.478C1734.61 803.521 1719.2 812.111 1701.24 813.973C1683.75 815.776 1666.2 812.22 1649.85 806.109C1615.94 793.434 1588.39 769.461 1559.97 747.849C1530.92 725.766 1499.92 706.969 1463.25 701.418C1431.13 696.561 1395.3 700.303 1369.25 721.339C1332.15 751.283 1327.36 810.897 1338.14 854.093C1344.03 877.653 1358.02 888.7 1382.57 887.667C1448.02 884.888 1500.37 832.636 1566.05 832.209C1597.91 831.995 1629.31 845.673 1651.45 868.47C1672.43 890.092 1680.03 919.493 1696.33 944.142C1703.77 955.391 1713.25 965.513 1725.7 971.181C1741.83 978.535 1760.05 977.831 1776.96 973.8C1810.83 965.74 1841.88 945.687 1877.91 953.175C1894.86 956.693 1910.42 964.481 1924.07 974.93L1924.07 1030.53C1920.48 1027.17 1916.61 1024.07 1912.43 1021.26C1896 1010.27 1875.88 1004.47 1856.11 1006.13Z" fill="#0E121F"/>
        <path d="M1924.09 1378.25L1924.09 1469.03C1918.27 1455.85 1913.23 1442.42 1911.36 1428.12C1909 1410.03 1913.26 1392.23 1924.09 1378.25Z" fill="#0E121F"/>
        <path d="M1083.29 968.832C1084.6 952.337 1082.99 935.795 1080.89 919.446C1077.12 890.304 1072.05 860.7 1077.97 831.471C1083.44 804.421 1099.7 782.383 1123.42 768.433C1144.31 756.151 1173.37 746.76 1196.61 758.018C1222.87 770.751 1224.46 805.041 1221.4 830.173C1219.5 845.953 1215.75 861.416 1212.83 877.033C1209.94 892.447 1208.39 908.007 1208.8 923.71C1209.57 953.43 1217.38 983.082 1233.65 1008.16C1248.04 1030.31 1269.03 1048.72 1293.84 1058.19C1321.09 1068.61 1351.45 1069.73 1377.26 1084.11C1399.65 1096.59 1416.81 1118.54 1412.71 1145.34C1400.96 1222.34 1301.1 1222.88 1244.77 1241.98C1230.13 1246.95 1214.14 1253.92 1202.64 1264.55C1192.41 1274.01 1186.57 1287.31 1175.73 1296.23C1161.54 1307.9 1139.64 1309.47 1124.24 1299.21C1105.69 1286.87 1106.03 1263.02 1109.07 1242.99C1111.51 1226.85 1116.23 1211.07 1117.75 1194.83C1119.13 1180.12 1117.49 1165.15 1110.14 1152.13C1103.48 1140.33 1092.28 1133.6 1081.67 1125.69C1071.14 1117.86 1063.21 1108.36 1059.27 1095.68C1050.73 1068.09 1061.73 1040.13 1071.43 1014.53C1077.05 999.699 1082.03 984.747 1083.29 968.841L1083.29 968.832ZM1100.78 1074.2C1105.36 1082.97 1114.13 1088.25 1122.8 1092.3C1131.86 1096.54 1141.88 1099.84 1149.54 1106.5C1158.41 1114.2 1163.94 1125.38 1164.48 1137.13C1165.57 1160.53 1137.62 1220.98 1177.18 1229.55C1183.86 1231 1190.84 1228.75 1196.74 1225.29C1210.47 1217.23 1219.36 1203.54 1231.43 1193.5C1247.27 1180.32 1262.8 1185.95 1280.72 1179.63C1291.07 1175.98 1302.49 1169.45 1306.8 1158.75C1310.97 1148.38 1306.78 1137.75 1299.63 1129.87C1282.21 1110.68 1255.45 1106.05 1231.89 1099C1219.29 1095.22 1208.92 1088.88 1201.22 1078.03C1194.35 1068.35 1189.63 1057.27 1184.79 1046.49C1179.14 1033.9 1173.7 1021.16 1170.24 1007.77C1169.71 1005.7 1169.25 1003.61 1168.84 1001.53C1166.71 987.037 1166.23 972.307 1167.23 957.51C1168.22 943.04 1170.37 928.677 1172.85 914.39C1175.08 901.472 1177.76 888.564 1178.62 875.454C1179.4 863.683 1178.69 851.566 1174.46 840.461C1170.94 831.226 1164.47 819.427 1152.66 822.522C1141.38 825.482 1135.06 838.332 1132.35 848.667C1129.35 860.051 1129.72 872.034 1130.82 883.65C1132.13 897.667 1134.11 911.567 1134.78 925.642C1135.47 939.851 1136.01 954.61 1132.99 968.607C1127.52 993.961 1111.02 1015.03 1101.86 1038.98C1097.57 1050.18 1094.96 1063.04 1100.78 1074.2Z" fill="#0E121F"/>
        <path d="M1344.07 1491.66C1353.62 1493.69 1362.05 1497.66 1369.29 1503.03L1272.42 1503.03C1294.96 1492.69 1318.67 1486.28 1344.07 1491.66Z" fill="#0E121F"/>
        <path d="M27.4231 -106.747C24.9272 -90.1179 11.345 -78.9253 -3.98239 -74.2781L-3.98653 -157.577C-2.40553 -156.7 -0.834161 -155.784 0.708287 -154.811C16.5377 -144.747 30.372 -126.451 27.4231 -106.747Z" fill="#0E121F"/>
        <path d="M618.961 -318.192C589.061 -268.573 522.911 -265.726 471.636 -275.219C438.271 -281.396 404.28 -293.772 369.914 -288.902C341.158 -284.833 318.919 -260.876 303.448 -237.817C288.006 -214.796 276.401 -189.355 259.706 -167.144C244.967 -147.535 226.334 -130.809 204.692 -119.124C163.502 -96.8826 112.796 -95.6365 73.2413 -122.299C54.2787 -135.09 39.9817 -153.165 32.635 -174.873C24.0637 -200.226 25.4698 -227.652 27.946 -253.883C30.6245 -282.167 33.8236 -310.065 31.5857 -338.512C29.3671 -366.757 22.9262 -394.742 12.745 -421.184C12.263 -422.428 11.7713 -423.661 11.2699 -424.895L73.7179 -424.898C75.8783 -403.257 87.9004 -383.399 91.6707 -362.008C96.4824 -334.688 93.1387 -306.646 97.5552 -279.278C100.082 -263.642 106.021 -248.199 115.623 -235.532C124.772 -223.473 137.555 -214.538 152.815 -212.649C169.647 -210.567 185.465 -217.875 197.9 -228.769C224.872 -252.408 232.428 -288.201 251.928 -316.968C252.786 -318.241 253.683 -319.465 254.598 -320.66C276.548 -339.219 304.166 -348.744 333.481 -351.956C352.144 -354.001 371.009 -353.857 389.74 -352.884C407.911 -351.94 426.054 -349.888 444.274 -350.506C461.568 -351.085 479.305 -353.978 494.459 -362.78C509.632 -371.582 520.283 -385.599 526.934 -401.631C530.086 -409.246 532.312 -417.026 533.951 -424.921L621.116 -424.926C624.22 -414.515 627.46 -404.171 629.35 -393.423C633.795 -368.06 632.553 -340.731 618.961 -318.182L618.961 -318.192Z" fill="#0E121F"/>
        <path d="M871.759 -364.196C860.357 -322.946 843.836 -279.816 858.288 -237.112C864.237 -219.548 875.709 -204.954 892.3 -196.404C908.226 -188.201 926.156 -184.818 942.034 -176.471C957.863 -168.142 969.432 -154.136 970.869 -135.868C972.326 -117.389 963.641 -98.3876 950.454 -85.7103C917.641 -54.1376 868.062 -57.7503 827.189 -45.7464C806.82 -39.7686 784.649 -28.6624 777.092 -7.33829C773.073 4.01787 772.418 16.4825 771.821 28.4072C771.696 30.7208 771.619 33.0247 771.542 35.3383C770.598 63.7956 783.257 92.6089 785.861 120.893C789.044 155.442 789.018 202.89 759.742 227.127C702.666 274.366 620.492 219.373 592.003 166.673C579.509 143.557 569.655 118.734 553.305 98.1731C525.444 63.162 490.72 58.7004 451.313 75.7459C433.894 83.2949 416.716 92.4537 397.985 96.3684C334.246 109.694 297.273 41.9364 296.596 -13.1562C295.763 -81.2724 334.04 -150.971 393.286 -185.11C447.895 -216.577 512.927 -211.982 573.475 -217.615C611.823 -221.184 654.268 -229.833 683.398 -254.224C696.518 -265.214 706.938 -279.395 713.068 -297.74C724.365 -331.567 722.676 -369.057 721.884 -404.224C721.739 -410.779 721.546 -417.768 721.545 -424.931L881.338 -424.939C881.339 -404.348 877.05 -383.361 871.749 -364.187L871.759 -364.196ZM816.387 -360.694C811.315 -372.975 798.86 -382.518 785.152 -380.233C771.242 -377.928 761.805 -364.567 758.721 -351.649C753.68 -330.489 755.522 -307.517 750.713 -285.923C741.576 -244.866 723.755 -193.388 689.621 -166.278C665.184 -146.891 633.575 -138.666 603.19 -134.751C539.856 -126.583 465.83 -134.388 415.299 -87.1683C395.056 -68.2633 379.749 -36.5373 396.756 -10.5005C414.678 16.9629 453.854 10.8011 480.981 4.88079C496.656 1.45777 512.436 -2.7365 528.593 -2.7373C543.814 -2.72842 557.947 1.86927 570.556 10.3132C597.674 28.4833 612.512 58.7906 627.465 86.6977C640.49 111 656.706 141.558 685.809 148.902C699.007 152.237 714.671 149.951 722.691 137.881C730.2 126.593 728.484 111.564 726.054 98.9838C719.4 64.5983 705.257 31.1965 706.19 -4.33659C706.614 -20.3873 710.623 -35.638 718.72 -49.4235C735.676 -71.8855 764.335 -82.4429 790.951 -89.144C806.23 -92.9911 822.261 -95.238 837.01 -100.917C848.144 -105.207 859.875 -111.801 864.974 -123.196C870.681 -135.96 865.465 -149.494 856.036 -158.902C844.863 -170.046 829.053 -174.219 817.224 -184.388C794.945 -203.513 795.58 -236.848 801.71 -263.012C805.681 -279.978 811.666 -296.395 815.705 -313.352C819.338 -328.564 822.576 -345.714 816.387 -360.694Z" fill="#0E121F"/>
        <path d="M1078.49 -400.578C1062.33 -389.964 1041.59 -387.476 1022.99 -391.9C1004.08 -396.401 988.42 -408.267 978.789 -424.953L1101.26 -424.959C1095.85 -415.444 1088.38 -407.067 1078.49 -400.578Z" fill="#0E121F"/>
        <path d="M278.318 -402.467C261.381 -392.006 247.163 -378.018 234.584 -362.092C225.995 -351.218 218.197 -339.755 210.321 -328.37C203.555 -318.595 196.682 -305.253 185.519 -299.892C174.212 -294.474 160.841 -297.655 151.393 -305.328C141.387 -313.454 135.641 -325.706 131.572 -337.65C121.709 -366.588 123.385 -397.157 133.524 -424.911L419.254 -424.925C400.302 -416.836 379.306 -414.223 358.802 -413.046C331.656 -411.483 304.163 -411.53 278.318 -402.467Z" fill="#0E121F"/>
        <path d="M1842.41 -88.377C1820.7 -97.5146 1801.26 -109.891 1781.73 -122.895C1764.59 -134.317 1744.54 -147.706 1723.22 -148.9C1722.87 -148.862 1722.5 -148.843 1722.13 -148.794C1701.97 -146.239 1693.05 -124.751 1686.88 -108.054C1678.5 -85.3708 1669.79 -62.7259 1658.16 -41.4595C1647.79 -22.5067 1632.75 -4.21886 1610.67 0.756485C1590.97 5.20156 1572.21 -4.18691 1561.77 -21.0275C1550.1 -39.8538 1552.3 -63.1538 1561.15 -82.6078C1570.98 -104.231 1589.82 -120.022 1600.84 -140.999C1611.45 -161.176 1616.79 -183.628 1621.55 -205.762C1623.96 -216.944 1626.19 -228.156 1628.82 -239.29C1631.31 -249.807 1633.81 -260.778 1639.44 -270.139C1650.55 -288.638 1672.99 -296.39 1693.66 -296.536C1742.23 -296.856 1778.93 -260.775 1810.87 -228.782C1827.5 -212.134 1844.51 -195.371 1864.9 -183.332C1883.51 -172.343 1905.23 -168.122 1924.01 -157.673L1924.02 -74.3741C1920.57 -73.3328 1917.03 -72.6095 1913.51 -72.243C1889.58 -69.7451 1864.11 -79.2394 1842.41 -88.377Z" fill="#0E121F"/>
        <path d="M1885.58 -333.168C1872.46 -319.796 1854 -312.729 1835.6 -310.993C1787.79 -306.479 1747.39 -340.005 1711.18 -366.214C1701.52 -373.213 1691.7 -380.037 1681.37 -386.023C1671.08 -391.99 1659.65 -398.342 1647.76 -400.231C1625.41 -403.787 1616.14 -382.202 1612.25 -364.137C1609.78 -352.713 1608.53 -341.001 1606.85 -329.442C1604.83 -315.599 1602.82 -301.756 1600.81 -287.913C1597.34 -264.073 1594.72 -239.558 1585.45 -217.097C1577.56 -197.951 1564.11 -180.232 1545.12 -171.035C1527.1 -162.31 1506.79 -163.466 1489.46 -173.278C1439.03 -201.839 1432.9 -279.412 1430.7 -330.889C1429.44 -360.195 1432.57 -389.433 1433.81 -418.681C1433.89 -420.773 1433.95 -422.874 1433.98 -424.976L1484.44 -424.978C1484.12 -419.04 1484.25 -413.092 1485.22 -407.106C1486.86 -396.916 1490.94 -386.929 1498.02 -379.42C1517.52 -358.753 1549.43 -365.291 1565.64 -386.037C1574.73 -397.673 1580.09 -411.313 1585.42 -424.974L1712.28 -424.98C1725.37 -412.632 1738.42 -400.245 1752.85 -389.43C1761.79 -382.73 1772.75 -375.356 1784.54 -377.295C1795.13 -379.03 1801.96 -388.333 1804.01 -398.388C1805.87 -407.507 1804.58 -416.434 1801.67 -424.984L1887.1 -424.989C1894.48 -413.353 1900.07 -400.523 1902.07 -386.979C1904.97 -367.362 1899.62 -347.474 1885.58 -333.158L1885.58 -333.168Z" fill="#0E121F"/>
        <path d="M1400.28 -359.682C1400.77 -326.058 1383.88 -293.233 1358.33 -272.332C1324.78 -244.886 1279.37 -239.89 1238.35 -250.675C1227.33 -253.576 1216.73 -257.643 1206.33 -262.289C1195.61 -267.07 1184.99 -272.275 1173.56 -275.234C1150.69 -281.162 1123.87 -278.442 1101.46 -271.548C1079.55 -264.809 1062.24 -249.548 1043.01 -237.786C1024.13 -226.236 1003.26 -217.762 981.672 -212.864C945.127 -204.562 916.91 -213.998 899.942 -248.296C887.881 -272.694 881.334 -300.159 898.155 -324.201C910.85 -342.345 932 -349.152 952.957 -352.035C976.016 -355.208 999.065 -352.095 1022.02 -349.532C1045.73 -346.882 1069.23 -346.16 1092.91 -349.709C1138.52 -356.556 1181.5 -375.038 1221.55 -397.347C1237.93 -406.467 1254.77 -416.908 1272.33 -424.968L1369.2 -424.973C1389.01 -410.292 1399.91 -385.045 1400.29 -359.682L1400.28 -359.682Z" fill="#0E121F"/>
        <path d="M191.212 571.38C215.938 567.735 237.329 562.818 258.999 549.976C278.433 538.455 295.977 523.927 311.814 507.866C332.645 486.753 350.575 463.038 367.762 438.927C383.146 417.352 392.534 389.126 387.828 362.491C381.753 328.067 351.251 306.841 323.14 290.252C307.725 281.152 291.665 273.47 275.199 266.482C262.359 261.036 248.978 255.214 238.952 245.208C234.189 240.446 230.738 234.942 228.27 228.696C227.258 226.122 230.053 222.883 232.675 223.152C247.617 224.704 260.709 231.615 273.53 238.998C287.624 247.105 301.487 255.626 315.099 264.523C328.702 273.42 342.063 282.703 355.155 292.361C367.562 301.499 379.535 312.942 393.755 319.217C405.728 324.499 421.47 324.488 429.268 312.419C436.179 301.718 438.56 287.479 451.313 281.627C462.659 276.421 473.668 283.429 477.583 294.467C482.51 308.358 474.355 321.227 469.969 334.01C465.921 345.8 464.861 358.891 468.294 370.97C472.112 384.456 481.646 392.775 494.15 398.327C506.45 403.802 519.706 407.657 528.642 418.415C536.461 427.804 539.633 440.76 531.97 451.287C524.432 461.641 510.628 465.411 498.838 468.4C473.659 474.793 448.248 472.48 422.673 475.152C373.123 480.331 338.865 532.514 332.322 578.189C327.427 612.392 339.941 638.448 352.214 669.459C355.56 677.913 358.635 686.541 360.737 695.4C362.106 701.184 362.936 708.491 358.569 713.292C353.335 719.038 344.765 717.457 338.393 714.749C331.75 711.934 326.149 707.085 321.628 701.514C301.055 676.161 297.959 636.869 268.536 618.622C252.09 608.424 233.331 612.791 215.699 616.899C200.97 620.322 185.025 623.408 170.179 618.752C158.042 614.955 142.117 602.269 149.972 587.963C157.317 574.582 178.024 573.328 191.212 571.38Z" fill="#0E121F"/>
        <path d="M1789.64 566.384C1793.39 554.103 1802.51 543.874 1813.51 537.241C1837.66 522.674 1866.07 525.353 1892.86 528.002C1903.24 529.024 1913.64 529.794 1924.05 530.276L1924.05 668.803C1916.88 666.094 1909.28 663.733 1901.25 661.651C1859.32 650.808 1770.32 629.749 1789.64 566.394L1789.64 566.384Z" fill="#0E121F"/>
        <path d="M1012.87 -86.6775C1022.5 -102.256 1025.47 -120.572 1031.9 -137.491C1037.17 -151.402 1044.82 -164.165 1054.41 -175.512C1073.67 -198.302 1100.78 -214.769 1130 -220.959C1143.98 -223.919 1161.53 -226.426 1174.65 -219.313C1204.65 -203.052 1183.27 -158.475 1171.43 -137.749C1156.35 -111.344 1136.34 -85.3053 1137.07 -53.3679C1137.47 -35.4472 1142.97 -18.0569 1148.31 -1.1004C1153.59 15.644 1159.01 32.4367 1160.9 49.9717C1162.72 66.7452 1161.17 83.8852 1156.6 100.119C1151.74 117.336 1143.42 133.253 1132.36 146.99C1119.03 167.813 1097.93 182.226 1076.57 194.287C1052.2 208.044 1025.82 219.758 1005.33 239.27C993.118 250.897 983.903 265.251 978.216 281.129C971.913 298.741 971.065 316.585 970.43 335.094C969.872 351.733 968.05 368.988 958.469 383.131C950.044 395.576 936.317 403.578 921.009 401.979C887.336 398.471 871.12 364.684 851.058 342.243C840.82 330.782 828.365 321.306 812.401 320.95C795.367 320.556 778.979 327.796 761.887 326.39C754.522 325.783 746.83 323.787 741.122 318.852C722.661 302.88 742.942 275.646 758.028 266.256C773.625 256.538 792.182 252.064 807.075 241.295C835.271 220.905 843.965 184.215 842.064 151.13C839.797 111.77 818.674 79.9884 835.6 40.0973C852.622 -0.0252706 892.685 -15.4416 930.3 -30.6843C960.887 -43.0829 994.761 -57.3229 1012.87 -86.6679L1012.87 -86.6775ZM924.453 66.2173C918.689 87.8497 922.913 110.253 920.446 132.232C917.97 154.327 905.622 170.562 889.909 184C877.195 194.875 859.024 205.335 856.971 224.731C855.189 241.505 866.97 257.275 883.232 251.115C891.879 247.827 898.684 240.972 904.834 233.337C908.073 230.638 911.322 227.948 914.58 225.326C915.525 224.969 916.479 224.68 917.433 224.487C920.759 223.783 922.89 224.554 923.391 228.449C923.912 232.527 923.478 236.922 923.102 241C922.351 249.107 920.722 257.118 919.036 265.062C916.183 278.433 912.993 292.044 913.466 305.83C913.842 316.713 920.697 330.72 932.805 326.285C938.058 324.357 942.087 319.276 945.49 314.735C949.047 309.973 951.9 304.671 954.349 299.166C959.274 288.051 962.05 275.972 964.131 263.941C967.398 244.97 968.911 225.333 975.938 207.354C982.887 189.568 995.293 176.399 1009.77 165.563C1021.16 157.04 1033.34 149.849 1044.63 141.182C1059.02 130.133 1075.66 122.257 1087.6 107.729C1107.41 83.6276 1103.52 49.9167 1099.76 20.727C1095.63 -11.4319 1095.52 -41.3833 1108.46 -71.7499C1113.03 -82.4795 1119.2 -92.1873 1124.01 -102.772C1128.08 -111.728 1131.13 -121.889 1129.07 -131.847C1127.36 -140.166 1122.45 -147.801 1114.69 -150.364C1106.35 -153.131 1097.27 -149.737 1090.69 -143.847C1083.27 -137.185 1078.31 -127.535 1073.73 -118.512C1068.7 -108.582 1064.29 -98.2674 1060.65 -87.6439C1054 -68.2479 1051.47 -47.2325 1043.32 -28.4438C1035.52 -10.4744 1021.41 -0.775975 1004.49 5.06666C988.662 10.5429 971.889 13.5033 957.15 22.2861C941.533 31.5991 929.397 47.6214 924.443 66.2173L924.453 66.2173Z" fill="#0E121F"/>
        <path d="M1810.48 413.647C1794.97 407.42 1779.14 401.628 1762.65 398.64C1746.28 395.672 1727.38 395.162 1711.86 402.026C1679.42 416.382 1681.56 457.458 1683.13 486.908C1684.04 503.758 1684.58 521.216 1679.16 537.441C1675.09 549.645 1668.11 560.741 1659.21 570.006C1641.47 588.448 1616 599.921 1590.31 599.797C1560.7 599.644 1536.18 582.322 1514.82 563.506C1502.93 553.018 1491.57 541.836 1478.9 532.255C1466.24 522.673 1452.2 514.923 1437.3 509.439C1390.57 492.224 1339.12 496.787 1297.11 520.966C1277.45 538.068 1260.25 558.38 1246.57 580.302C1229.14 608.269 1219.39 640.872 1198.2 666.486C1162.17 710.08 1095.6 716.706 1047 691.683C993.679 664.251 964.669 602.71 963.683 544.552C962.493 475.144 996.25 409.137 1040.54 357.552C1063.72 330.558 1091.03 308.8 1118.77 286.79C1145.81 265.33 1170.95 242.414 1188.7 212.453C1205.66 183.84 1215.98 151.257 1218.24 118.056C1220.85 79.8914 1212.55 42.2572 1206.01 4.89294C1195.22 -56.6579 1189.92 -132.071 1242.08 -177.44C1264.86 -197.251 1295.16 -208.387 1325.42 -206.644C1355.89 -204.881 1385.7 -190.875 1406.14 -168.136C1449.38 -120.034 1442.76 -51.3876 1456.24 7.58924C1462.36 34.3881 1472.5 61.9388 1491.86 82.095C1515.71 106.917 1549.19 111.378 1582.07 107.453C1599.01 105.428 1616.51 101.224 1630.25 90.5906C1641.72 81.7212 1649.68 69.4009 1656.03 56.5505C1669.18 29.9241 1675.79 0.18452 1695.68 -22.7018C1713.63 -43.371 1742.99 -59.6158 1769.53 -44.598C1792.26 -31.749 1797.26 -3.90905 1798.63 19.9692C1799.42 33.9665 1798.83 47.9927 1799.4 61.9997C1800.13 80.412 1802.9 98.7086 1807.54 116.533C1812.09 134.048 1818.36 151.063 1826.45 167.238C1833.82 181.949 1842.74 196.167 1855.35 206.954C1868.2 217.933 1884.42 223.735 1900.41 228.391C1908.28 230.685 1916.18 232.844 1924.03 235.109L1924.04 444.007C1918.66 443.959 1913.31 443.709 1908.02 443.247C1873.33 440.26 1842.38 426.457 1810.48 413.647ZM1905.8 324.501C1899.2 308.711 1885.68 296.537 1871.21 287.987C1843.45 271.6 1810.45 264.063 1785 243.762C1771.35 232.88 1762.17 218.555 1756.57 202.11C1750.76 185.066 1748.56 167.184 1743.75 149.89C1739.9 136.067 1733.19 120.74 1719.43 114.291C1703.98 107.071 1686.56 114.187 1675.24 125.601C1662.37 138.577 1655.74 156.228 1644.42 170.409C1633.76 183.78 1620.56 195.012 1605.74 203.505C1575.32 220.945 1539.24 225.671 1505.39 216.534C1471.61 207.406 1444.08 185.795 1425 156.77C1406.99 129.374 1395.56 98.4107 1381.49 68.9612C1374.59 54.5498 1367.05 40.3793 1357.82 27.3272C1348.68 14.3811 1337.63 0.471115 1323.55 -7.3076C1308.96 -15.366 1292.6 -13.1962 1279.63 -3.14099C1266.04 7.39618 1258.95 23.4086 1257.54 40.269C1255.84 60.571 1261.56 80.6412 1265.67 100.316C1270.07 121.36 1273.33 142.645 1275.32 164.046C1277.12 183.133 1278.87 203.116 1274.32 221.944C1269.64 241.262 1257.1 254.354 1242.31 266.791C1201.34 301.246 1154.91 333.851 1117.28 372.586C1104.42 385.822 1090.36 399.724 1082.74 416.797C1076.3 431.228 1073.53 447.144 1072.93 462.867C1072.4 476.884 1074.16 492.028 1082.66 503.653C1103.36 532.004 1143.58 522.159 1169.95 508.671C1197.3 494.673 1216.93 471.266 1239.11 450.741C1239.81 450.095 1240.5 449.459 1241.19 448.832C1244.92 446.017 1248.77 443.347 1252.73 440.84C1283.55 421.366 1319.71 411.493 1356.07 411.144C1397.05 410.756 1436.62 421.908 1473.31 439.634C1504.34 454.632 1542.25 473.158 1575.99 454.465C1603.29 439.348 1607.64 406.205 1618.56 379.965C1624.51 365.668 1633.26 353.367 1647.34 346.204C1663.33 338.067 1682.11 336.794 1699.76 337.227C1720.12 337.717 1740.33 341.206 1759.72 347.461C1778.41 353.495 1795.19 363.038 1812.79 371.53C1828.13 378.923 1844.87 385.39 1862.2 384.069C1876.25 382.989 1890.99 377.705 1900.31 366.647C1910.36 354.684 1911.74 338.691 1905.8 324.501Z" fill="#0E121F"/>
        <path d="M1789.45 331.602C1783.8 334.571 1776.89 334.321 1770.79 333.213C1753.05 329.994 1735.71 322.639 1718.72 316.779C1701.16 310.716 1683.35 304.895 1664.94 302.033C1642.3 298.506 1615.6 299.288 1595.91 312.341C1578.97 323.573 1567.73 341.976 1559.27 359.647C1552.32 374.155 1541.17 384.557 1526.24 390.544C1484.56 407.253 1444.35 388.929 1404.07 377.941C1364.01 367.012 1319.78 363.476 1280.23 378.333C1263.7 384.542 1250.1 395.61 1237.35 407.544C1231.03 413.464 1224.88 419.557 1218.47 425.37C1212.21 431.058 1205.63 437.15 1197.78 440.573C1184.19 446.502 1170.2 441.085 1165.53 426.828C1156.06 397.937 1183.21 369.691 1204.2 354.285C1231.32 334.406 1264.38 323.935 1290.4 302.456C1304.13 291.119 1316.26 277.362 1314.86 258.506C1314.12 248.471 1311.79 238.417 1310.1 228.507C1308.35 218.327 1306.62 208.147 1304.88 197.967C1303.36 189.06 1301.48 180.134 1300.54 171.14C1299.82 164.151 1300 156.612 1303.48 150.307C1311.21 136.31 1328.83 138.073 1340.33 146.006C1353.48 155.087 1360.79 170.568 1367.06 184.758C1373.65 199.661 1380.08 214.361 1390.98 226.71C1440.18 282.436 1525.47 277.853 1590.55 258.512C1607.37 253.508 1621.71 245.535 1633.6 232.52C1644.19 220.932 1652.78 207.571 1664.24 196.764C1674.22 187.355 1691.63 175.188 1704.41 186.987C1714.61 196.414 1711.33 212.619 1711.96 224.91C1712.77 240.566 1718.22 256.674 1730.14 267.354C1740.61 276.724 1754.73 280.974 1767.21 286.883C1779 292.464 1793.12 301.265 1796.57 314.857C1798.27 321.557 1795.64 328.353 1789.45 331.602Z" fill="#0E121F"/>
        <path d="M110.588 290.031C132.308 308.761 145.333 336.321 136.629 364.923C128.263 392.417 104.415 413.607 79.3803 426.101C54.0084 438.77 24.6067 444.352 -3.95661 444.103L-3.96699 235.204C5.09473 237.807 14.1179 240.544 23.0158 243.764C53.5655 254.81 85.7541 268.612 110.588 290.031Z" fill="#0E121F"/>
    </g>
    <defs fill="#000000">
        <clipPath id="clip0_105_192" fill="#000000">
            <rect width="1920" height="1079" fill="white" transform="translate(1920 1079.1) rotate(-179.997)"/>
        </clipPath>
    </defs>
</svg>